# xmcd
#
# Track frame offsets: 
#        150
#        13482
#        26047
#        44722
#        61802
#        78987
#        94577
#        112405
#        125932
#        139650
#        152505
#        166752
#        180675
#
# Disc length: 2635 seconds
#
# Revision: 3
# Processed by: cddbd v1.5.2PL0 Copyright (c) Steve Scherf et al.
# Submitted via: ExactAudioCopy v0.95a4
#
DISCID=b40a490d
DTITLE=The Seldom Scene - Like We Used To Be
DYEAR=1994
DGENRE=Country
TTITLE0=Grandpa Get Your Guitar
TTITLE1=Let Me Be Your Friend
TTITLE2=Like I Used To Do
TTITLE3=Highway Of Pain
TTITLE4=Cheap Whiskey
TTITLE5=Philadelphia Lawyer
TTITLE6=Almost Threw Your Love Away
TTITLE7=The Other Side Of Town
TTITLE8=She's More To Be Pitied
TTITLE9=Heaven's Green Fields
TTITLE10=I've Come To Take You Home
TTITLE11=I'll Remember You Love In My Prayers
TTITLE12=Some Morning Soon
EXTD=
EXTT0=
EXTT1=
EXTT2=
EXTT3=
EXTT4=
EXTT5=
EXTT6=
EXTT7=
EXTT8=
EXTT9=
EXTT10=
EXTT11=
EXTT12=
PLAYORDER=
